External Loads File
version=1
nRows=85
nColumns=13
Range=5.000000e-03-10 seconds
endheader
time 	forceRightX 	forceRightY 	forceRightZ 	pointRightX 	pointRightY 	pointRightZ 	forceLeftX 	forceLeftY 	forceLeftZ 	pointLeftX 	pointLeftY 	pointLeftZ 		
2.505000 -38.989432 -56.330699 -0.000000 0.116071 0.438962 -0.160984 -60.985072 903.414097 -0.000000 0.332696 0.205731 -0.402665
2.510000 -40.617194 -53.837918 -0.000000 0.119627 0.443819 -0.161155 -47.231951 881.259358 -0.000000 0.329200 0.201288 -0.402630
2.515000 -42.483937 -51.355422 -0.000000 0.123594 0.448628 -0.160658 -33.320158 860.006567 -0.000000 0.325584 0.196808 -0.402542
2.520000 -44.629335 -48.812528 -0.000000 0.127217 0.453225 -0.161404 -21.602142 839.676945 -0.000000 0.321801 0.192643 -0.402523
2.525000 -47.317591 -45.875906 -0.000000 0.131367 0.457645 -0.161826 -9.989531 820.295431 -0.000000 0.317913 0.188550 -0.402422
2.530000 -50.645680 -42.271599 -0.000000 0.136128 0.462196 -0.161597 2.081898 801.579300 -0.000000 0.313857 0.184691 -0.402365
2.535000 -54.524215 -37.888977 -0.000000 0.140741 0.466534 -0.162116 13.087597 783.042279 -0.000000 0.309641 0.180848 -0.402263
2.540000 -58.897208 -32.571119 -0.000000 0.145376 0.470555 -0.162187 22.928495 764.098475 -0.000000 0.305289 0.177369 -0.402149
2.545000 -63.731660 -26.057715 -0.000000 0.150317 0.474152 -0.162362 32.775899 744.088638 -0.000000 0.300782 0.173898 -0.402048
2.550000 -68.906427 -18.209748 -0.000000 0.155261 0.477808 -0.162463 42.195619 722.463804 -0.000000 0.296141 0.170810 -0.401950
2.555000 -74.313745 -8.892055 -0.000000 0.160350 0.481157 -0.162649 51.383869 698.814386 -0.000000 0.291402 0.167819 -0.401797
2.560000 -79.802858 1.876689 -0.000000 0.165523 0.484223 -0.162633 60.114107 672.979127 -0.000000 0.286527 0.165196 -0.401662
2.565000 -85.175207 14.027540 -0.000000 0.170949 0.487215 -0.162356 69.140533 644.945277 -0.000000 0.281501 0.162623 -0.401534
2.570000 -90.238613 27.055828 -0.000000 0.176209 0.489773 -0.162410 77.253303 615.070327 -0.000000 0.276347 0.160472 -0.401350
2.575000 -94.779279 40.573122 -0.000000 0.181553 0.492290 -0.162327 85.401639 583.559466 -0.000000 0.271048 0.158502 -0.401176
2.580000 -98.627759 53.999672 -0.000000 0.186990 0.494525 -0.162266 93.576429 550.696606 -0.000000 0.265597 0.156647 -0.401022
2.585000 -101.735566 66.760479 -0.000000 0.192223 0.496544 -0.162349 101.420505 516.818504 -0.000000 0.259933 0.155162 -0.400888
2.590000 -104.052443 78.661421 -0.000000 0.197552 0.498429 -0.162325 109.378508 482.098470 -0.000000 0.254170 0.153767 -0.400758
2.595000 -105.672868 89.641789 -0.000000 0.202759 0.500016 -0.162245 117.052954 446.802604 -0.000000 0.248289 0.152640 -0.400582
2.600000 -106.568301 100.046988 -0.000000 0.208080 0.501402 -0.162098 124.755893 410.893797 -0.000000 0.242251 0.151744 -0.400452
2.605000 -106.862843 110.187716 -0.000000 0.213273 0.502511 -0.162146 131.928931 374.368466 -0.000000 0.236131 0.151057 -0.400335
2.610000 -106.627146 120.530553 -0.000000 0.218404 0.503368 -0.162042 138.279915 337.013315 -0.000000 0.230079 0.150662 -0.400241
2.615000 -105.825380 131.700159 -0.000000 0.223505 0.503815 -0.161983 143.762465 298.482034 -0.000000 0.223907 0.150357 -0.400194
2.620000 -104.654173 144.172438 -0.000000 0.228476 0.504031 -0.161901 147.747752 258.858475 -0.000000 0.217889 0.150423 -0.400135
2.625000 -103.183447 158.525647 -0.000000 0.233287 0.503916 -0.161704 150.061705 218.393797 -0.000000 0.211922 0.150686 -0.400200
2.630000 -101.528939 175.239790 -0.000000 0.237920 0.503533 -0.161451 150.534141 177.708544 -0.000000 0.205977 0.151321 -0.400190
2.635000 -99.934411 194.672084 -0.000000 0.242364 0.502867 -0.161246 149.007424 137.738157 -0.000000 0.200190 0.152296 -0.400167
2.640000 -98.612900 217.171523 -0.000000 0.246642 0.501919 -0.161064 145.548389 99.446633 -0.000000 0.194537 0.153451 -0.400175
2.645000 -97.787521 243.006339 -0.000000 0.250792 0.500669 -0.160847 140.352401 63.750407 -0.000000 0.189030 0.154923 -0.400118
2.650000 -97.703044 272.274958 -0.000000 0.254915 0.499147 -0.160764 133.741678 31.415206 -0.000000 0.183724 0.156639 -0.400043
2.655000 -98.653482 304.808463 -0.000000 0.258835 0.497087 -0.160573 126.165879 2.993092 -0.000000 0.178487 0.158582 -0.399939
2.660000 -100.778079 340.159481 -0.000000 0.262816 0.494840 -0.160297 118.164797 -21.265081 -0.000000 0.173331 0.160749 -0.399841
2.665000 -104.175698 377.520432 -0.000000 0.266704 0.492319 -0.160206 110.271014 -41.295530 -0.000000 0.167996 0.163119 -0.399904
2.670000 -109.189347 415.697864 -0.000000 0.270636 0.489480 -0.160288 102.999463 -57.125199 -0.000000 0.162839 0.165675 -0.399809
2.675000 -115.282138 453.501822 -0.000000 0.274833 0.486309 -0.160336 96.654069 -69.156371 -0.000000 0.157649 0.168450 -0.399722
2.680000 -122.635456 489.422892 -0.000000 0.279092 0.482959 -0.160283 91.490916 -77.732885 -0.000000 0.152496 0.171474 -0.399598
2.685000 -130.628267 522.175023 -0.000000 0.283439 0.479094 -0.160328 87.494314 -83.477479 -0.000000 0.147313 0.174757 -0.399505
2.690000 -139.412417 550.458766 -0.000000 0.287870 0.475366 -0.160510 84.632805 -86.913882 -0.000000 0.142150 0.178240 -0.399443
2.695000 -148.480974 573.456764 -0.000000 0.292368 0.471318 -0.160696 82.676845 -88.667408 -0.000000 0.137102 0.181988 -0.399376
2.700000 -157.546854 590.706363 -0.000000 0.296977 0.467075 -0.160854 81.393092 -89.275168 -0.000000 0.132194 0.185982 -0.399340
2.705000 -166.606168 602.125281 -0.000000 0.301542 0.462698 -0.161019 80.584539 -89.177933 -0.000000 0.127400 0.190164 -0.399317
2.710000 -175.476175 608.125370 -0.000000 0.306067 0.458156 -0.161154 80.026055 -88.757471 -0.000000 0.122765 0.194507 -0.399271
2.715000 -184.069232 609.481695 -0.000000 0.310394 0.453433 -0.161356 79.533667 -88.248720 -0.000000 0.118321 0.199157 -0.399237
2.720000 -190.572357 607.798386 -0.000000 0.315530 0.448422 -0.161564 78.758911 -87.953921 -0.000000 0.114049 0.204055 -0.399239
2.725000 -197.750655 603.431277 -0.000000 0.319922 0.443416 -0.161608 78.112200 -87.469811 -0.000000 0.109908 0.209062 -0.399187
2.730000 -204.256629 598.040300 -0.000000 0.324080 0.438076 -0.161396 77.447084 -86.895740 -0.000000 0.105968 0.214270 -0.399199
2.735000 -209.489920 593.051438 -0.000000 0.328303 0.432428 -0.161335 76.722134 -86.241578 -0.000000 0.102192 0.219705 -0.399221
2.740000 -213.923971 589.362278 -0.000000 0.332300 0.426526 -0.161248 76.069903 -85.387731 -0.000000 0.098622 0.225328 -0.399185
2.745000 -217.034918 587.929435 -0.000000 0.336374 0.420384 -0.161181 75.508546 -84.356709 -0.000000 0.095200 0.231083 -0.399143
2.750000 -219.152252 589.060179 -0.000000 0.339876 0.414029 -0.160959 75.177458 -83.090423 -0.000000 0.091940 0.237173 -0.399158
2.755000 -219.143781 593.309421 -0.000000 0.343286 0.406939 -0.160724 74.968113 -81.765386 -0.000000 0.088893 0.243313 -0.399108
2.760000 -218.799437 599.952862 -0.000000 0.346282 0.400171 -0.160347 75.121410 -80.247919 -0.000000 0.086076 0.249625 -0.399067
2.765000 -217.523007 609.038795 -0.000000 0.349160 0.393508 -0.160076 75.485889 -78.778476 -0.000000 0.083450 0.256068 -0.399011
2.770000 -214.926660 620.458830 -0.000000 0.351728 0.386558 -0.159925 75.887709 -77.640623 -0.000000 0.081143 0.262669 -0.399000
2.775000 -211.383170 633.789001 -0.000000 0.354134 0.379600 -0.159805 76.178887 -77.060749 -0.000000 0.079079 0.269443 -0.399027
2.780000 -206.579750 648.803165 -0.000000 0.356303 0.372305 -0.159643 76.060371 -77.304750 -0.000000 0.077272 0.276325 -0.399113
2.785000 -201.604469 664.791559 -0.000000 0.358168 0.365205 -0.159503 75.411755 -78.345993 -0.000000 0.075790 0.283426 -0.399163
2.790000 -195.629691 681.649327 -0.000000 0.359798 0.357789 -0.159369 74.017700 -80.223347 -0.000000 0.074563 0.290606 -0.399226
2.795000 -190.279599 698.577312 -0.000000 0.361098 0.350531 -0.159158 72.150875 -82.591740 -0.000000 0.073656 0.297693 -0.399410
2.800000 -183.632658 715.838192 -0.000000 0.362270 0.342960 -0.158874 69.786188 -85.475168 -0.000000 0.073059 0.304992 -0.399510
2.805000 -177.176191 732.810025 -0.000000 0.363252 0.335445 -0.158569 67.245911 -88.611480 -0.000000 0.072752 0.312257 -0.399568
2.810000 -169.889393 749.531955 -0.000000 0.364049 0.327831 -0.158268 64.369853 -92.050088 -0.000000 0.072708 0.319691 -0.399687
2.815000 -162.466016 765.547308 -0.000000 0.364606 0.320295 -0.158197 61.042698 -95.666158 -0.000000 0.072921 0.327109 -0.399781
2.820000 -154.120203 780.658982 -0.000000 0.364888 0.312741 -0.157906 56.935540 -99.395617 -0.000000 0.073449 0.334603 -0.399797
2.825000 -145.042068 794.447035 -0.000000 0.365013 0.305286 -0.157693 51.947408 -103.042402 -0.000000 0.074255 0.342154 -0.399869
2.830000 -135.522294 806.562032 -0.000000 0.364714 0.297900 -0.157748 46.170945 -106.425622 -0.000000 0.075301 0.349570 -0.399985
2.835000 -124.610519 816.965965 -0.000000 0.364264 0.290409 -0.157662 39.679218 -109.496080 -0.000000 0.076710 0.357048 -0.400102
2.840000 -113.625357 825.345479 -0.000000 0.363471 0.283170 -0.156836 32.904735 -112.141260 -0.000000 0.078503 0.364413 -0.400148
2.845000 -101.098424 831.872203 -0.000000 0.362382 0.275902 -0.157549 25.905923 -114.417489 -0.000000 0.080609 0.371975 -0.400097
2.850000 -88.658024 836.316597 -0.000000 0.361025 0.268603 -0.157554 19.138771 -116.276111 -0.000000 0.082777 0.379232 -0.400169
2.855000 -75.305115 838.769892 -0.000000 0.359307 0.261388 -0.157470 12.655160 -117.759621 -0.000000 0.085234 0.386566 -0.400169
2.860000 -61.920945 839.102055 -0.000000 0.357294 0.254433 -0.157369 6.699493 -118.855739 -0.000000 0.087986 0.393812 -0.400175
2.865000 -47.587638 837.337849 -0.000000 0.354934 0.247421 -0.157175 1.183567 -119.567449 -0.000000 0.090997 0.400984 -0.400155
2.870000 -33.426458 833.352247 -0.000000 0.352225 0.240623 -0.157111 -3.762950 -119.856630 -0.000000 0.094165 0.407939 -0.400022
2.875000 -18.634013 827.148613 -0.000000 0.349254 0.233896 -0.156997 -8.315799 -119.676343 -0.000000 0.097692 0.414818 -0.400096
2.880000 -4.396639 818.707645 -0.000000 0.345965 0.227496 -0.156908 -12.355436 -119.029051 -0.000000 0.101367 0.421485 -0.399985
2.885000 9.989976 808.134133 -0.000000 0.342416 0.221136 -0.156891 -16.046752 -117.948663 -0.000000 0.105307 0.428011 -0.400029
2.890000 23.932975 795.595930 -0.000000 0.338546 0.214932 -0.156798 -19.449254 -116.447869 -0.000000 0.109392 0.434387 -0.399890
2.895000 37.209067 781.356605 -0.000000 0.334417 0.208939 -0.156699 -22.796073 -114.393316 -0.000000 0.113813 0.440544 -0.399399
2.900000 49.360056 765.750913 -0.000000 0.330038 0.203172 -0.156566 -26.351475 -111.489762 -0.000000 0.118477 0.446418 -0.399380
2.905000 60.363743 749.096238 -0.000000 0.325434 0.197740 -0.156427 -30.400666 -107.340907 -0.000000 0.123491 0.452084 -0.399337
2.910000 70.394859 731.633877 -0.000000 0.320607 0.192405 -0.156307 -35.122603 -101.578427 -0.000000 0.128808 0.457537 -0.399500
2.915000 78.208357 713.678899 -0.000000 0.315564 0.187495 -0.156170 -40.323606 -94.065451 -0.000000 0.134075 0.462662 -0.399291
2.920000 85.143353 695.217285 -0.000000 0.310279 0.182677 -0.156129 -45.998496 -84.776299 -0.000000 0.139579 0.467665 -0.399317
2.925000 90.349506 676.356615 -0.000000 0.304920 0.178251 -0.155994 -51.751245 -74.026172 -0.000000 0.145218 0.472351 -0.399262
